<svg width="18.33" height="20" viewBox="0 0 21 22" fill="none" xmlns="http://www.w3.org/2000/svg">
<rect width="21" height="22" fill="none"/>
<g id="Desktop - 4">
<rect width="1440" height="3435" transform="translate(-1213 -3226)" fill="none"/>
<g id="contact me">
<rect x="-1100" y="-169" width="1214" height="236" rx="44" stroke="#989898" stroke-width="2"/>
<g id="Frame 7">
<g id="github">
<g id="Github">
<path id="Vector" d="M7.63588 18.1465C2.93503 19.5732 2.93503 15.7686 1.05469 15.293M14.2171 21V17.319C14.2523 16.8654 14.1918 16.4095 14.0394 15.9814C13.887 15.5534 13.6463 15.1631 13.3333 14.8364C16.2855 14.5035 19.388 13.3716 19.388 8.17826C19.3878 6.85027 18.8829 5.57321 17.9778 4.61139C18.4063 3.44954 18.376 2.16532 17.8931 1.02548C17.8931 1.02548 16.7837 0.692576 14.2171 2.43321C12.0622 1.84237 9.79075 1.84237 7.63588 2.43321C5.06922 0.692576 3.95982 1.02548 3.95982 1.02548C3.47692 2.16532 3.44662 3.44954 3.8752 4.61139C2.96335 5.58034 2.45791 6.86895 2.46494 8.2068C2.46494 13.3621 5.56751 14.494 8.51964 14.865C8.21033 15.1883 7.97177 15.574 7.81951 15.9968C7.66724 16.4196 7.60468 16.8701 7.63588 17.319V21" stroke="#5180FF" stroke-width="2" stroke-linecap="round" stroke-linejoin="round"/>
</g>
</g>
</g>
</g>
</g>
</svg>
