<svg xmlns="http://www.w3.org/2000/svg" width="430" height="430" style="width:100%;height:100%;transform:translate3d(0,0,0);content-visibility:visible" viewBox="0 0 430 430"><defs><clipPath id="a"><path d="M0 0h430v430H0z"/></clipPath><clipPath id="e"><path d="M0 0h430v430H0z"/></clipPath><clipPath id="d"><path d="M0 0h430v430H0z"/></clipPath><clipPath id="c"><path d="M0 0h430v430H0z"/></clipPath><clipPath id="b"><path d="M0 0h430v430H0z"/></clipPath></defs><g fill="none" clip-path="url(#a)"><g clip-path="url(#b)" style="display:none"><path class="secondary" style="display:none"/><path class="secondary" style="display:none"/><path class="primary" style="display:none"/></g><g stroke="#F0F0F0" stroke-linecap="round" stroke-linejoin="round" stroke-width="18" clip-path="url(#c)" style="display:block"><path d="M-79.468 78.468 80-80.938m0 125v-125m-125 0H80" class="secondary" style="display:block" transform="translate(294.96 135.042)"/><path d="M-84.468 84.468 80-80m0 125V-80m-125 0H80" class="secondary" style="display:block" transform="translate(525 -95)"/><path d="M156.25 3.247V133.75c0 11.046-8.954 20-20 20h-270c-11.046 0-20-8.954-20-20v-270c0-11.046 8.954-20 20-20H-3.898" class="primary" style="display:block" transform="translate(208.75 221.25)"/></g><g clip-path="url(#d)" style="display:none"><path class="secondary" style="display:none"/><path class="primary" style="display:none"/></g><g clip-path="url(#e)" style="display:none"><path class="secondary" style="display:none"/><path class="primary" style="display:none"/></g></g></svg>